<svg xmlns="http://www.w3.org/2000/svg" width="21" height="21" viewBox="0 0 21 21" fill="none"><path d="M17.8975 5.38357C17.4459 5.57808 16.9712 5.71352 16.4851 5.78656C16.7124 5.74756 17.0468 5.33807 17.1799 5.17233C17.3822 4.92232 17.5363 4.63692 17.6345 4.33061C17.6345 4.30786 17.6572 4.27536 17.6345 4.25911C17.623 4.25286 17.6102 4.24958 17.5972 4.24958C17.5841 4.24958 17.5713 4.25286 17.5598 4.25911C17.0319 4.54524 16.4701 4.76362 15.8876 4.90909C15.8673 4.9153 15.8457 4.91585 15.8251 4.9107C15.8045 4.90555 15.7857 4.89488 15.7707 4.87984C15.7254 4.8258 15.6766 4.77478 15.6246 4.7271C15.387 4.51405 15.1175 4.33968 14.8259 4.21037C14.4322 4.04871 14.0069 3.9787 13.5823 4.00562C13.1702 4.03167 12.7679 4.14229 12.4003 4.33061C12.0384 4.52915 11.7203 4.79888 11.4652 5.12358C11.1968 5.45778 11.0031 5.84563 10.897 6.26104C10.8095 6.65618 10.7996 7.06457 10.8678 7.46349C10.8678 7.53174 10.8678 7.54149 10.8093 7.53174C8.49422 7.1905 6.59473 6.36828 5.04267 4.6036C4.97448 4.5256 4.93876 4.5256 4.88356 4.6036C4.20819 5.63056 4.53613 7.2555 5.38035 8.05822C5.494 8.16547 5.61089 8.26946 5.73427 8.36696C5.34721 8.33946 4.96959 8.23447 4.6238 8.05822C4.55886 8.01597 4.52315 8.03872 4.5199 8.11672C4.5107 8.22485 4.5107 8.33357 4.5199 8.44171C4.58765 8.95993 4.7917 9.45085 5.11118 9.86426C5.43066 10.2777 5.8541 10.5987 6.33822 10.7946C6.45623 10.8452 6.5792 10.8833 6.70513 10.9084C6.3468 10.979 5.97928 10.99 5.61738 10.9409C5.53946 10.9246 5.51023 10.9669 5.53946 11.0416C6.01676 12.3416 7.05255 12.738 7.81235 12.959C7.91625 12.9753 8.02016 12.9753 8.13705 13.0013C8.13705 13.0013 8.13705 13.0013 8.11757 13.0208C7.89352 13.4303 6.98761 13.7065 6.572 13.8495C5.8134 14.1222 5.00458 14.2265 4.20169 14.155C4.07506 14.1355 4.04584 14.1387 4.01337 14.155C3.9809 14.1712 4.01337 14.207 4.04909 14.2395C4.21144 14.3467 4.37379 14.441 4.54263 14.532C5.04528 14.8064 5.57668 15.0244 6.12716 15.182C8.97802 15.9684 12.186 15.3899 14.3258 13.2613C16.0078 11.5908 16.5987 9.28668 16.5987 6.97926C16.5987 6.89152 16.7059 6.83952 16.7676 6.79402C17.1931 6.46217 17.5682 6.07027 17.8813 5.63056C17.9355 5.56502 17.9633 5.48156 17.9592 5.39657C17.9592 5.34782 17.9592 5.35757 17.8975 5.38357Z" fill="white"></path></svg>